<?xml version="1.0" encoding="UTF-8" standalone="no"?>
<svg
   xmlns:dc="http://purl.org/dc/elements/1.1/"
   xmlns:cc="http://creativecommons.org/ns#"
   xmlns:rdf="http://www.w3.org/1999/02/22-rdf-syntax-ns#"
   xmlns:svg="http://www.w3.org/2000/svg"
   xmlns="http://www.w3.org/2000/svg"
   xmlns:sodipodi="http://sodipodi.sourceforge.net/DTD/sodipodi-0.dtd"
   xmlns:inkscape="http://www.inkscape.org/namespaces/inkscape"
   width="553.36328pt"
   height="344.42188pt"
   viewBox="0 0 553.36328 344.42188"
   version="1.2"
   id="svg2091"
   sodipodi:docname="03.svg"
   inkscape:version="1.0.2 (e86c870879, 2021-01-15, custom)">
  <metadata
     id="metadata2097">
    <rdf:RDF>
      <cc:Work
         rdf:about="">
        <dc:format>image/svg+xml</dc:format>
        <dc:type
           rdf:resource="http://purl.org/dc/dcmitype/StillImage" />
        <dc:title></dc:title>
      </cc:Work>
    </rdf:RDF>
  </metadata>
  <defs
     id="defs2095" />
  <sodipodi:namedview
     pagecolor="#ffffff"
     bordercolor="#666666"
     borderopacity="1"
     objecttolerance="10"
     gridtolerance="10"
     guidetolerance="10"
     inkscape:pageopacity="0"
     inkscape:pageshadow="2"
     inkscape:window-width="1842"
     inkscape:window-height="1051"
     id="namedview2093"
     showgrid="false"
     fit-margin-top="0"
     fit-margin-left="0"
     fit-margin-right="0"
     fit-margin-bottom="0"
     inkscape:zoom="0.2625"
     inkscape:cx="368.91143"
     inkscape:cy="229.61455"
     inkscape:window-x="-9"
     inkscape:window-y="-9"
     inkscape:window-maximized="1"
     inkscape:current-layer="svg2091" />
  <g
     id="surface1"
     transform="translate(-723.31641,-827.78906)">
    <path
       style="fill:#ee2e33;fill-opacity:1;fill-rule:nonzero;stroke:none"
       d="m 1071.5781,827.78906 c -18.2773,0 -35.4687,7.1211 -48.3984,20.03906 l -15.9297,15.9336 -0.25,0.13672 -0.4219,0.41015 -58.32419,58.33203 -3.625,-3.62109 25.80859,-25.78906 2.82812,-2.83203 -2.82812,-2.82813 -16.375,-16.3789 c -4.23438,-4.23047 -9.87109,-6.5625 -15.86328,-6.5625 -5.98828,0 -11.6211,2.33203 -15.85938,6.5625 L 889.03516,904.5 c -8.7461,8.75 -8.7461,22.98047 0,31.71875 l 33.30468,33.3125 c 4.23438,4.23828 9.8711,6.57031 15.85938,6.57031 5.99609,0 11.6289,-2.33203 15.86328,-6.57031 l 19.41797,-19.42188 44.66793,-45.5 30.5821,-30.57812 c 3.4883,-3.49219 8.1093,-5.41016 13.039,-5.41016 4.9219,0 9.5508,1.91797 13.0313,5.39844 l 33.3008,33.30859 c 3.4882,3.48047 5.3984,8.11329 5.3984,13.03125 0,4.92969 -1.9102,9.5625 -5.3906,13.03907 l -33.3086,33.30078 c -3.4805,3.48047 -8.1094,5.40234 -13.0313,5.40234 -4.9297,0 -9.5507,-1.92187 -13.0312,-5.40234 l -16.3789,-16.3711 25.8125,-25.79687 2.8281,-2.83203 -2.8281,-2.82813 -3.6328,-3.62109 -2.8203,-2.82031 -2.8282,2.83203 -48.8515,48.83984 -2.82426,2.82813 2.82426,2.83203 23.1406,23.1289 c 12.9297,12.92968 30.1094,20.05078 48.3984,20.05078 18.2813,0 35.461,-7.1211 48.3907,-20.05078 l 24.1406,-24.1289 c 12.9219,-12.9336 20.039,-30.1211 20.039,-48.40235 0,-18.28125 -7.1171,-35.46875 -20.039,-48.39062 l -24.1406,-24.14063 c -12.9297,-12.91796 -30.1094,-20.03906 -48.3907,-20.03906 z m -134.02732,63.67969 c 3.23047,0 5.85547,-2.62891 5.85547,-5.85938 0,-3.23046 -2.625,-5.85937 -5.85547,-5.85937 -3.23047,0 -5.85937,2.62891 -5.85937,5.85937 0,3.23047 2.6289,5.85938 5.85937,5.85938 m 134.02732,-59.67969 c 17.211,0 33.3907,6.69922 45.5625,18.8711 l 24.1407,24.14062 c 12.1679,12.16797 18.8671,28.34766 18.8671,45.55859 0,17.21875 -6.6992,33.40235 -18.8671,45.57032 l -24.1407,24.1289 c -12.1718,12.17971 -28.3515,18.88281 -45.5625,18.88281 -17.2187,0 -33.3984,-6.7031 -45.5664,-18.88281 l -23.1406,-23.1289 48.8477,-48.85157 3.621,3.6211 -27.2187,27.21094 c -0.3828,0.3789 -0.5898,0.8789 -0.5898,1.41796 0,0.53125 0.207,1.03125 0.5898,1.41016 l 17.7891,17.79297 c 4.2304,4.23828 9.8711,6.57031 15.8593,6.57031 5.9922,0 11.6211,-2.33203 15.8594,-6.57031 l 33.3008,-33.30078 c 4.2422,-4.24219 6.5703,-9.8711 6.5703,-15.8711 0,-5.98828 -2.3281,-11.62109 -6.5703,-15.85937 l -33.3008,-33.30078 c -4.2383,-4.23828 -9.8672,-6.57813 -15.8594,-6.57813 -6,0 -11.6289,2.33985 -15.8593,6.57813 l -30.6094,30.60937 -44.64846,45.47266 -19.41797,19.41797 c -3.48046,3.48047 -8.10937,5.40234 -13.03515,5.40234 -4.92188,0 -9.55078,-1.92187 -13.03125,-5.40234 l -33.30469,-33.3086 c -7.18359,-7.17968 -7.18359,-18.87109 0,-26.0625 l 33.30469,-33.30859 c 3.48047,-3.48047 8.10937,-5.39062 13.03125,-5.39062 4.92578,0 9.55469,1.91015 13.03515,5.39062 l 16.375,16.37891 -27.22265,27.21093 c -0.375,0.3711 -0.58594,0.89063 -0.58594,1.41016 0,0.53125 0.21094,1.05078 0.58594,1.42188 l 6.45312,6.44921 c 0.37891,0.3711 0.88282,0.57813 1.41407,0.57813 0.53515,0 1.03515,-0.20703 1.41406,-0.57813 l 59.74223,-59.75 c 0.1679,-0.0898 0.3281,-0.21093 0.4687,-0.35156 l 16.1328,-16.1289 c 12.168,-12.17188 28.3477,-18.8711 45.5664,-18.8711"
       id="path2072" />
    <path
       style="fill:#ee2e33;fill-opacity:1;fill-rule:nonzero;stroke:none"
       d="m 1108.1094,933.39844 -33.3086,33.30078 c -3.4805,3.48047 -8.1094,5.40234 -13.0313,5.40234 -4.9179,0 -9.5507,-1.92187 -13.0312,-5.40234 l -16.3789,-16.3711 27.2187,-27.21875 c 0.3828,-0.37109 0.5938,-0.8789 0.5938,-1.41015 0,-0.52735 -0.211,-1.03906 -0.5938,-1.41797 l -6.4492,-6.44141 c -0.3789,-0.3789 -0.8789,-0.57812 -1.4101,-0.57812 -0.5391,0 -1.0391,0.19922 -1.418,0.57812 l -59.74221,59.75 c -0.17187,0.0899 -0.32812,0.19922 -0.46484,0.33985 l -16.13281,16.1289 c -12.17188,12.17971 -28.35547,18.88281 -45.56641,18.88281 -17.21484,0 -33.39844,-6.7031 -45.57031,-18.88281 l -24.13281,-24.1289 c -25.125,-25.1211 -25.125,-66.00782 0,-91.12891 l 24.13281,-24.14062 c 12.17187,-12.17188 28.35547,-18.8711 45.57031,-18.8711 17.21094,0 33.39453,6.69922 45.56641,18.8711 l 23.13672,23.14062 -48.84375,48.83984 -3.625,-3.62109 27.22265,-27.21094 c 0.37891,-0.3789 0.58594,-0.8789 0.58594,-1.41015 0,-0.53907 -0.20703,-1.03907 -0.58594,-1.41797 L 954.0625,871.19141 c -4.23438,-4.23047 -9.86719,-6.5625 -15.85938,-6.5625 -5.99218,0 -11.6289,2.33203 -15.86328,6.5625 L 889.03516,904.5 c -8.7461,8.75 -8.7461,22.98047 0,31.71875 l 33.30468,33.3125 c 4.23438,4.23828 9.8711,6.57031 15.86328,6.57031 5.99219,0 11.625,-2.33203 15.85938,-6.57031 l 19.43359,-19.44141 44.64451,-45.46875 30.5977,-30.58984 c 3.4805,-3.49219 8.1015,-5.41016 13.0312,-5.41016 4.9219,0 9.5508,1.91797 13.0313,5.41016 l 33.3086,33.29687 c 3.4804,3.48047 5.3906,8.11329 5.3906,13.03125 0,4.92969 -1.9102,9.5625 -5.3906,13.03907 z m 2.8203,-28.89844 -33.3008,-33.30078 c -4.2383,-4.23828 -9.8672,-6.57813 -15.8594,-6.57813 -6,0 -11.6289,2.33985 -15.8593,6.57813 l -30.6016,30.58984 -44.66798,45.5 -19.40625,19.41016 c -3.48046,3.48047 -8.10937,5.40234 -13.03125,5.40234 -4.92578,0 -9.55078,-1.92187 -13.03125,-5.40234 l -33.30859,-33.3086 c -3.47266,-3.46875 -5.38672,-8.10156 -5.38672,-13.03125 0,-4.92968 1.91406,-9.55859 5.38672,-13.03125 l 33.30469,-33.30859 c 3.48047,-3.48047 8.10937,-5.39062 13.03515,-5.39062 4.92188,0 9.55079,1.91015 13.03125,5.39062 l 16.3711,16.37891 -25.80469,25.80078 -2.83203,2.83203 2.83594,2.82812 3.62109,3.60938 2.82813,2.83203 2.82812,-2.83203 48.84375,-48.83984 2.82422,-2.82813 -2.82422,-2.83203 -23.13672,-23.14063 c -12.92969,-12.91796 -30.11328,-20.03906 -48.39453,-20.03906 -18.28125,0 -35.46875,7.1211 -48.39844,20.03906 l -24.13281,24.14063 c -26.68359,26.67969 -26.68359,70.10156 0,96.79297 l 24.13281,24.1289 c 12.92969,12.92968 30.11328,20.05078 48.39844,20.05078 18.28125,0 35.46875,-7.1211 48.39453,-20.05078 l 15.92969,-15.92968 0.25391,-0.13282 0.41406,-0.41796 58.33208,-58.33204 3.621,3.6211 -25.8085,25.80078 -2.8321,2.82812 2.8321,2.83204 16.3789,16.37109 c 4.2304,4.23828 9.8711,6.57031 15.8593,6.57031 5.9922,0 11.6211,-2.33203 15.8594,-6.57031 l 33.3008,-33.30078 c 4.2422,-4.24219 6.5703,-9.8711 6.5703,-15.8711 0,-5.98828 -2.3281,-11.62109 -6.5703,-15.85937"
       id="path2074" />
    <path
       style="fill:#ee2e33;fill-opacity:1;fill-rule:nonzero;stroke:none"
       d="m 1062.4219,949.26172 c -3.2305,0 -5.8633,2.6289 -5.8633,5.85937 0,3.23047 2.6328,5.84766 5.8633,5.84766 3.2265,0 5.8594,-2.61719 5.8594,-5.84766 0,-3.23047 -2.6329,-5.85937 -5.8594,-5.85937"
       id="path2076" />
    <path
       style="fill:#ee2e33;fill-opacity:1;fill-rule:nonzero;stroke:none"
       d="m 795.75391,1131.0586 v 13.7227 h -51.86329 c -13.58203,-0.1329 -20.44531,-6.8594 -20.57421,-20.1797 v -27.8321 c 0,-13.6679 6.85937,-20.5312 20.57421,-20.5703 H 778.25 c 13.58594,0.082 20.44141,5.7891 20.57422,17.1094 v 21.4219 h -54.28125 v -13.9688 h 40.5 l 0.0625,-5.6914 c -0.043,-3.4414 -2.32813,-5.1601 -6.85547,-5.1601 h -30.76563 c -6.96875,0 -10.44921,3.2695 -10.44921,9.8007 v 21.2305 c 0,6.7891 3.08984,10.168 9.27343,10.1172 h 49.44532"
       id="path2078" />
    <path
       style="fill:#ee2e33;fill-opacity:1;fill-rule:nonzero;stroke:none"
       d="m 835.33594,1131.0586 h 38.01562 c 6.44531,0.4023 9.77344,-3.1484 9.99219,-10.6367 v -48.0117 c -0.0859,-6.6602 -3.28906,-9.9688 -9.60156,-9.9297 h -45.26563 v 82.3008 h -13.58594 v -95.9532 h 61.59375 c 13.5,0.3008 20.37891,7.0117 20.64063,20.1211 l -0.19531,55.3203 c -0.26172,13.3203 -7.07813,20.1602 -20.44532,20.5118 h -41.14843 v -13.7227"
       id="path2080" />
    <path
       style="fill:#ee2e33;fill-opacity:1;fill-rule:nonzero;stroke:none"
       d="m 991.64062,1086.1914 v 13.5195 h -52.71093 v -13.5195 z m -60.28906,58.5195 -13.58594,0.07 v -95.9532 h 75.2461 l 0.0625,13.5938 -61.72266,0.059 v 82.2304"
       id="path2082" />
    <path
       style="fill:#ee2e33;fill-opacity:1;fill-rule:nonzero;stroke:none"
       d="m 1091.9688,1048.8906 v 13.5899 h -33.7071 v 82.3593 h -13.582 v -82.3593 h -34.3594 l 0.059,-13.5899 h 81.5899"
       id="path2084" />
    <path
       style="fill:#ee2e33;fill-opacity:1;fill-rule:nonzero;stroke:none"
       d="m 1109.6719,1172.1484 v -95.9492 h 54.9297 c 13.6289,0 20.457,7.0117 20.5078,21.0313 v 27.3711 c 0,13.4492 -6.8203,20.1797 -20.4492,20.1797 h -33.961 v -13.6524 l 31.1602,-0.07 c 6.4414,0.051 9.6406,-3.0898 9.6015,-9.3984 V 1100.43 c 0,-6.9688 -3.9218,-10.5195 -11.7617,-10.6484 h -36.3203 v 82.3671 h -13.707"
       id="path2086" />
    <path
       style="fill:#ee2e33;fill-opacity:1;fill-rule:nonzero;stroke:none"
       d="m 1276.6797,1076.1992 v 75.4414 c -0.078,13.6289 -6.9414,20.4805 -20.5703,20.5703 h -41.2188 V 1158.5 h 39.0586 c 5.9727,-0.051 8.9727,-2.9219 9.0196,-8.6289 v -73.6719 z m -61.7891,0 v 45.5196 c 0.051,6.2304 3.25,9.3593 9.6094,9.4101 h 30.7617 v 13.6524 h -33.5703 c -13.6328,-0.043 -20.4922,-6.75 -20.582,-20.1211 v -48.461 h 13.7812"
       id="path2088" />
  </g>
</svg>

